<svg id="Layer_1" data-name="Layer 1" xmlns="http://www.w3.org/2000/svg" viewBox="0 0 20 20"><defs><style>.cls-1{fill:#676767;}</style></defs><title>macha icons</title><path class="cls-1" d="M16,8.74V5.64a2.79,2.79,0,0,0-2.53-3h-7a2.79,2.79,0,0,0-2.53,3V8.78a3.31,3.31,0,0,0-2.14,3.09v2.07A1.72,1.72,0,0,0,3,15.58v1.29a0.47,0.47,0,0,0,.47.47H6a0.47,0.47,0,0,0,.47-0.47V15.65h7.14v1.22a0.47,0.47,0,0,0,.47.47h2.54a0.47,0.47,0,0,0,.47-0.47V15.54a1.72,1.72,0,0,0,1.12-1.61V11.87A3.31,3.31,0,0,0,16,8.74h0ZM4.86,8.57V5.64a1.86,1.86,0,0,1,1.59-2h7a1.86,1.86,0,0,1,1.59,2V8.57H7.56l1.8-2.19a0.47,0.47,0,1,0-.72-0.59L6.34,8.57H4.86ZM4,15.65h1.6v0.76H4V15.65Zm10.61,0h1.6v0.76h-1.6V15.65Zm2.72-1.72a0.78,0.78,0,0,1-.78.78H3.5a0.78,0.78,0,0,1-.78-0.78V11.87A2.37,2.37,0,0,1,5.08,9.5h9.83a2.37,2.37,0,0,1,2.37,2.37v2.07h0Z"/><path class="cls-1" d="M5.55,12.29a0.66,0.66,0,1,1-.66-0.66,0.66,0.66,0,0,1,.66.66h0Zm9.39,0.66a0.66,0.66,0,1,1,.66-0.66,0.66,0.66,0,0,1-.66.66h0Z"/></svg>