<svg id="Layer_1" data-name="Layer 1" xmlns="http://www.w3.org/2000/svg" viewBox="0 0 20 20"><defs><style>.cls-1,.cls-2{fill:#676767;}.cls-1{stroke:#fff;stroke-miterlimit:10;stroke-width:0.3px;}</style></defs><title>macha icons</title><path class="cls-1" d="M15.14,4.11H14.06V3.44a0.7,0.7,0,0,0-1.41,0V4.11h-2V3.44a0.7,0.7,0,0,0-1.41,0V4.11h-2V3.44a0.7,0.7,0,1,0-1.41,0V4.11H4.8A1.93,1.93,0,0,0,2.87,6v9.29A1.93,1.93,0,0,0,4.8,17.27H15.2a1.93,1.93,0,0,0,1.93-1.93V6A2,2,0,0,0,15.14,4.11ZM4.74,5.55H5.83V6.22a0.7,0.7,0,1,0,1.41,0V5.55h2V6.22a0.7,0.7,0,0,0,1.41,0V5.55h2V6.22a0.7,0.7,0,0,0,1.41,0V5.55h1.08a0.53,0.53,0,0,1,.53.53V7.71H4.21V6A0.5,0.5,0,0,1,4.74,5.55Zm10.4,10.31H4.74a0.53,0.53,0,0,1-.53-0.53V9.12H15.64v6.21A0.52,0.52,0,0,1,15.14,15.86Z"/><path class="cls-2" d="M12.31,11.29l-0.43-.43a0.15,0.15,0,0,0-.21,0L9.6,12.94l-0.73-.73a0.15,0.15,0,0,0-.21,0l-0.43.43a0.15,0.15,0,0,0,0,.21l1.21,1.21a0.27,0.27,0,0,0,.16.1,0.28,0.28,0,0,0,.16-0.1l2.55-2.55A0.15,0.15,0,0,0,12.31,11.29Z"/></svg>