<svg id="Layer_1" data-name="Layer 1" xmlns="http://www.w3.org/2000/svg" viewBox="0 0 20 20"><defs><style>.cls-1{fill:#676767;}</style></defs><title>macha icons</title><path class="cls-1" d="M3.36,16.64a0.52,0.52,0,0,1-.52-0.52V5.3A0.52,0.52,0,0,1,3.2,4.81L7.63,3.39a0.51,0.51,0,0,1,.32,0l4.27,1.37,4.27-1.37a0.52,0.52,0,0,1,.67.49V14.7a0.52,0.52,0,0,1-.36.49l-4.43,1.42a0.52,0.52,0,0,1-.32,0L7.79,15.24,3.52,16.61l-0.16,0h0Zm4.43-2.45,0.16,0,4.27,1.37,3.91-1.26V4.58L12.37,5.79a0.52,0.52,0,0,1-.32,0L7.79,4.42,3.88,5.68v9.74l3.75-1.21,0.16,0h0Z"/><path class="cls-1" d="M7.79,15.21a0.52,0.52,0,0,1-.52-0.52V4.2a0.52,0.52,0,0,1,1,0V14.7a0.52,0.52,0,0,1-.52.52"/><path class="cls-1" d="M12.22,16.45a0.52,0.52,0,0,1-.52-0.52V5.49a0.52,0.52,0,1,1,1,0V15.93a0.52,0.52,0,0,1-.52.52"/></svg>