<svg id="Layer_1" data-name="Layer 1" xmlns="http://www.w3.org/2000/svg" viewBox="0 0 20 20"><defs><style>.cls-1{fill:#676767;}</style></defs><title>macha icons</title><path class="cls-1" d="M18.29,13.71a0.43,0.43,0,0,0,0-.09L14.16,4.2a0.44,0.44,0,0,0-.4-0.26H6.24a0.44,0.44,0,0,0-.4.26l-4.1,9.43a0.42,0.42,0,0,0,0,.09L0.95,15.45a0.44,0.44,0,0,0,.4.61H3.18a0.44,0.44,0,0,0,.4-0.26l0.68-1.57H6.9L6.37,15.45a0.44,0.44,0,0,0,.4.61H8.61A0.44,0.44,0,0,0,9,15.8l1-2.28,1,2.28a0.44,0.44,0,0,0,.4.26h1.83a0.44,0.44,0,0,0,.4-0.61L13.1,14.24h2.64l0.68,1.57a0.44,0.44,0,0,0,.4.26h1.83a0.44,0.44,0,0,0,.4-0.61ZM17.1,15.19l-0.68-1.57a0.44,0.44,0,0,0-.4-0.26H12.43A0.44,0.44,0,0,0,12,14l0.53,1.22H11.68l-1.2-2.76,2.63-6a0.43,0.43,0,0,0,0-.09l0.49-1.12,3.79,8.71a0.42,0.42,0,0,0,0,.09L18,15.19H17.1ZM9.52,12.43l-1.2,2.76H7.45L8,14a0.44,0.44,0,0,0-.4-0.61H4a0.44,0.44,0,0,0-.4.26L2.89,15.19H2L2.55,14a0.42,0.42,0,0,0,0-.09L6.37,5.17l0.15-.36h6.3L12.3,6a0.44,0.44,0,0,0,0,.09L10,11.33l-0.24.55Z"/><path class="cls-1" d="M6.75,7.59h3.51a0.44,0.44,0,1,0,0-.88H6.75A0.44,0.44,0,1,0,6.75,7.59Z"/><path class="cls-1" d="M9.38,9H5.87a0.44,0.44,0,0,0,0,.88H9.39A0.44,0.44,0,0,0,9.38,9Z"/></svg>