<svg id="Layer_1" data-name="Layer 1" xmlns="http://www.w3.org/2000/svg" viewBox="0 0 20 20"><defs><style>.cls-1{fill:#fff;}</style></defs><title>macha icons</title><path class="cls-1" d="M14.64,4.33H13.5a0.5,0.5,0,0,0-.22-0.22V2.82a0.5,0.5,0,0,0-1,0V4.11a0.49,0.49,0,0,0-.22.22H7.93a0.5,0.5,0,0,0-.22-0.22V2.82a0.5,0.5,0,1,0-1,0V4.11a0.5,0.5,0,0,0-.22.22H5.36a0.5,0.5,0,0,0-.5.5V17.18a0.5,0.5,0,0,0,.5.5h9.28a0.5,0.5,0,0,0,.5-0.5V4.83A0.5,0.5,0,0,0,14.64,4.33Zm-0.5,12.35H5.85V5.32H6.5a0.49,0.49,0,0,0,.44.28H7.49a0.49,0.49,0,0,0,.44-0.28h4.13a0.49,0.49,0,0,0,.44.28h0.55a0.49,0.49,0,0,0,.44-0.28h0.65V16.68Z"/></svg>