<svg id="Layer_1" data-name="Layer 1" xmlns="http://www.w3.org/2000/svg" viewBox="0 0 20 20"><defs><style>.cls-1{fill:none;stroke:#676767;stroke-linecap:round;stroke-linejoin:round;}.cls-2{fill:#676767;}</style></defs><title>macha icons</title><path class="cls-1" d="M17.25,6.13L16,2.93a0.29,0.29,0,0,0-.25-0.17H4.19a0.28,0.28,0,0,0-.24.17L2.76,6.12h0a0.39,0.39,0,0,0,0,.08V6.72a1.22,1.22,0,0,0,2.35.47,0.08,0.08,0,0,1,.16,0,1.22,1.22,0,0,0,2.25,0c0-.09.12-0.09,0.15,0a1.22,1.22,0,0,0,2.26,0,0.07,0.07,0,0,1,.15,0,1.22,1.22,0,0,0,2.26,0,0.07,0.07,0,0,1,.15,0,1.22,1.22,0,0,0,2.26,0,0.07,0.07,0,0,1,.15,0,1.22,1.22,0,0,0,2.35-.46V6.21a0.52,0.52,0,0,0,0-.08h0Z"/><path class="cls-1" d="M16.89,16.08h0V12.8a0.54,0.54,0,0,0-.53-0.53H3.64a0.54,0.54,0,0,0-.53.53v3.49a0.94,0.94,0,0,0,1.77.45,0.22,0.22,0,0,1,.27-0.13h9.72a0.25,0.25,0,0,1,.28.13,0.94,0.94,0,0,0,.83.49,0.92,0.92,0,0,0,.92-0.94V16.08Z"/><path class="cls-2" d="M4.47,7.74a0.17,0.17,0,0,0-.17-0.16H3.82a0.17,0.17,0,0,0-.17.17h0V12.1h0a0.17,0.17,0,0,0,.17.17H4.31a0.17,0.17,0,0,0,.17-0.16h0V7.75h0Z"/><path class="cls-2" d="M16.26,7.74a0.17,0.17,0,0,0-.17-0.16H15.61a0.17,0.17,0,0,0-.17.17h0V12.1h0a0.17,0.17,0,0,0,.17.17H16.1a0.17,0.17,0,0,0,.17-0.16h0V7.75h0Z"/></svg>