<svg id="Layer_1" data-name="Layer 1" xmlns="http://www.w3.org/2000/svg" viewBox="0 0 20 20"><defs><style>.cls-1{fill:#fff;}</style></defs><title>macha icons</title><path class="cls-1" d="M16,8.44A1.72,1.72,0,0,1,14.82,8a1.79,1.79,0,0,1-2.41,0A1.8,1.8,0,0,1,10,8,1.8,1.8,0,0,1,7.59,8,1.8,1.8,0,0,1,5.18,8,1.72,1.72,0,0,1,2.25,6.72V6.22a0.49,0.49,0,0,1,0-.07,0.49,0.49,0,0,1,0-.12L3.48,2.76a0.78,0.78,0,0,1,.71-0.49H15.71a0.79,0.79,0,0,1,.72.49l1.29,3.2a0.49,0.49,0,0,1,0,.26V6.72A1.72,1.72,0,0,1,16,8.44ZM14.82,6.62a0.58,0.58,0,0,1,.54.38,0.72,0.72,0,0,0,1.39-.27V6.22l-1.19-3H4.36L3.28,6.17a0.48,0.48,0,0,1,0,.12V6.72A0.72,0.72,0,0,0,4.64,7a0.59,0.59,0,0,1,.54-0.37A0.69,0.69,0,0,1,5.72,7,0.75,0.75,0,0,0,7,7a0.59,0.59,0,0,1,.54-0.38h0A0.66,0.66,0,0,1,8.12,7,0.75,0.75,0,0,0,9.46,7,0.67,0.67,0,0,1,10,6.62a0.58,0.58,0,0,1,.54.38,0.75,0.75,0,0,0,1.34,0,0.67,0.67,0,0,1,.54-0.38,0.58,0.58,0,0,1,.54.37,0.75,0.75,0,0,0,1.34,0A0.67,0.67,0,0,1,14.82,6.62Zm-4.43.75h0Zm4.82,0h0Zm0.28-4.24h0Z"/><path class="cls-1" d="M16,17.74a1.44,1.44,0,0,1-1.19-.62H5.23a1.44,1.44,0,0,1-2.62-.82V12.8a1,1,0,0,1,1-1H16.36a1,1,0,0,1,1,1v3.49A1.42,1.42,0,0,1,16,17.74Zm-10.63-.8,0,0Zm-0.2-.83h9.73a0.76,0.76,0,0,1,.71.39,0.44,0.44,0,0,0,.39.24,0.42,0.42,0,0,0,.42-0.44V12.8l-12.75,0,0,3.53a0.44,0.44,0,0,0,.83.21A0.72,0.72,0,0,1,5.14,16.11Z"/><path class="cls-1" d="M4.47,7.74a0.17,0.17,0,0,0-.17-0.16H3.82a0.17,0.17,0,0,0-.17.17h0V12.1h0a0.17,0.17,0,0,0,.17.17H4.31a0.17,0.17,0,0,0,.17-0.16h0V7.75h0Z"/><path class="cls-1" d="M16.26,7.74a0.17,0.17,0,0,0-.17-0.16H15.61a0.17,0.17,0,0,0-.17.17h0V12.1h0a0.17,0.17,0,0,0,.17.17H16.1a0.17,0.17,0,0,0,.17-0.16h0V7.75h0Z"/></svg>